<svg display="none" xmlns="http://www.w3.org/2000/svg">
    <symbol id="cool" width="72" height="72" viewBox="0 0 72 72">
       <g clip-path="url(#clip0_2645_649)">
             <g clip-path="url(#clip1_2645_649)">
              <g clip-path="url(#clip2_2645_649)">
              <path d="M69.75 54H6.75V18C6.75 15.5149 8.76487 13.5 11.25 13.5H65.25C67.7351 13.5 69.75 15.5149 69.75 18V54Z" fill="#353744"/>
          </g>
        <g clip-path="url(#clip3_2645_649)">
          <path d="M69.75 54H6.75V56.25C6.75 58.7351 8.76487 60.75 11.25 60.75H65.25C67.7351 60.75 69.75 58.7351 69.75 56.25V54Z" fill="#808080"/>
        </g>
          <g clip-path="url(#clip4_2645_649)">
               <path d="M65.25 54H6.75V18C6.75 15.5149 8.76487 13.5 11.25 13.5H60.75C63.2351 13.5 65.25 15.5149 65.25 18V54Z" fill="#55525B"/>
                                        </g>
                                        <g clip-path="url(#clip5_2645_649)">
                                        <path d="M65.25 54H6.75V56.25C6.75 58.7351 8.76487 60.75 11.25 60.75H60.75C63.2351 60.75 65.25 58.7351 65.25 56.25V54Z" fill="#DBDEE3"/>
                                        </g>
                                        <g clip-path="url(#clip6_2645_649)">
                                        <path d="M59.0625 18H12.9375C12.006 18 11.25 18.756 11.25 19.6875V47.8125C11.25 48.744 12.006 49.5 12.9375 49.5H59.0625C59.994 49.5 60.75 48.744 60.75 47.8125V19.6875C60.75 18.756 59.994 18 59.0625 18Z" fill="#FBBE18"/>
                                        </g>
                                        <g clip-path="url(#clip7_2645_649)">
                                        <path d="M18 27H42.75C43.9931 27 45 25.9931 45 24.75C45 23.5069 43.9931 22.5 42.75 22.5H18C16.7569 22.5 15.75 23.5069 15.75 24.75C15.75 25.9931 16.7569 27 18 27Z" fill="#F68820"/>
                                        </g>
                                        <g clip-path="url(#clip8_2645_649)">
                                        <path d="M18 36H42.75C43.9931 36 45 34.9931 45 33.75C45 32.5069 43.9931 31.5 42.75 31.5H18C16.7569 31.5 15.75 32.5069 15.75 33.75C15.75 34.9931 16.7569 36 18 36Z" fill="#F68820"/>
                                        </g>
                                        <g clip-path="url(#clip9_2645_649)">
                                        <path d="M18 45H42.75C43.9931 45 45 43.9931 45 42.75C45 41.5069 43.9931 40.5 42.75 40.5H18C16.7569 40.5 15.75 41.5069 15.75 42.75C15.75 43.9931 16.7569 45 18 45Z" fill="#F68820"/>
                                        </g>
                                        <g clip-path="url(#clip10_2645_649)">
                                        <path d="M46.6875 65.25H42.1875V60.75H46.6875V65.25Z" fill="#808080"/>
                                        </g>
                                        <g clip-path="url(#clip11_2645_649)">
                                        <path d="M31.5 60.75H42.1875V65.25H31.5V60.75Z" fill="#B3B4B6"/>
                                        </g>
                                        <g clip-path="url(#clip12_2645_649)">
                                        <path d="M51.1875 65.25H23.0625C20.5774 65.25 18.5625 67.2649 18.5625 69.75H55.6875C55.6875 67.2649 53.6726 65.25 51.1875 65.25Z" fill="#DBDEE3"/>
                                        </g>
                                        <g clip-path="url(#clip13_2645_649)">
                                        <path d="M51.1875 65.25H46.6875C44.2024 65.25 42.1875 67.2649 42.1875 69.75H55.6875C55.6875 67.2649 53.6726 65.25 51.1875 65.25Z" fill="#808080"/>
                                        </g>
                                        <g clip-path="url(#clip14_2645_649)">
                                        <path d="M19.125 2.25H15.75C8.29463 2.25 2.25 8.29463 2.25 15.75C2.25 23.2054 8.29463 29.25 15.75 29.25H19.125C26.5804 29.25 32.625 23.2054 32.625 15.75C32.625 8.29463 26.5804 2.25 19.125 2.25Z" fill="#5C76B2"/>
                                        </g>
                                        <g clip-path="url(#clip15_2645_649)">
                                        <path d="M15.75 29.25C23.2058 29.25 29.25 23.2058 29.25 15.75C29.25 8.29416 23.2058 2.25 15.75 2.25C8.29416 2.25 2.25 8.29416 2.25 15.75C2.25 23.2058 8.29416 29.25 15.75 29.25Z" fill="#6FA4D8"/>
                                        </g>
                                        <g clip-path="url(#clip16_2645_649)">
                                        <path d="M15.75 27C21.9632 27 27 21.9632 27 15.75C27 9.5368 21.9632 4.5 15.75 4.5C9.5368 4.5 4.5 9.5368 4.5 15.75C4.5 21.9632 9.5368 27 15.75 27Z" fill="#55525B"/>
                                        </g>
                                        <g clip-path="url(#clip17_2645_649)">
                                        <path d="M15.75 16.3125C15.4395 16.3125 15.1875 16.0605 15.1875 15.75V6.75C15.1875 6.4395 15.4395 6.1875 15.75 6.1875C16.0605 6.1875 16.3125 6.4395 16.3125 6.75V15.75C16.3125 16.0605 16.0605 16.3125 15.75 16.3125Z" fill="#6FA4D8"/>
                                        </g>
                                        <g clip-path="url(#clip18_2645_649)">
                                        <path d="M10.9768 21.086C10.8328 21.086 10.6888 21.0309 10.5786 20.9218C10.3592 20.7024 10.3592 20.3458 10.5786 20.1264L15.3508 15.353C15.5702 15.1336 15.9268 15.1336 16.1462 15.353C16.3656 15.5724 16.3656 15.929 16.1462 16.1484L11.374 20.9218C11.2648 21.0309 11.1208 21.086 10.9768 21.086Z" fill="#6FA4D8"/>
                                        </g>
                                     <g clip-path="url(#clip19_2645_649)">
                                     <path d="M15.75 18C16.9926 18 18 16.9926 18 15.75C18 14.5074 16.9926 13.5 15.75 13.5C14.5074 13.5 13.5 14.5074 13.5 15.75C13.5 16.9926 14.5074 18 15.75 18Z" fill="#F68820"/>
                                     </g>
                                     <g clip-path="url(#clip20_2645_649)">
                                     <path d="M15.75 16.875C16.3713 16.875 16.875 16.3713 16.875 15.75C16.875 15.1287 16.3713 14.625 15.75 14.625C15.1287 14.625 14.625 15.1287 14.625 15.75C14.625 16.3713 15.1287 16.875 15.75 16.875Z" fill="#DBDEE3"/>
                                     </g>
                                     <g clip-path="url(#clip21_2645_649)">
                                     <path d="M7.875 16.3125H6.75C6.4395 16.3125 6.1875 16.0605 6.1875 15.75C6.1875 15.4395 6.4395 15.1875 6.75 15.1875H7.875C8.1855 15.1875 8.4375 15.4395 8.4375 15.75C8.4375 16.0605 8.1855 16.3125 7.875 16.3125Z" fill="#F68820"/>
                                     </g>
                                     <g clip-path="url(#clip22_2645_649)">
                                     <path d="M15.75 25.3125C15.4395 25.3125 15.1875 25.0605 15.1875 24.75V23.625C15.1875 23.3145 15.4395 23.0625 15.75 23.0625C16.0605 23.0625 16.3125 23.3145 16.3125 23.625V24.75C16.3125 25.0605 16.0605 25.3125 15.75 25.3125Z" fill="#F68820"/>
                                     </g>
                                     <g clip-path="url(#clip23_2645_649)">
                                     <path d="M24.75 16.3125H23.625C23.3145 16.3125 23.0625 16.0605 23.0625 15.75C23.0625 15.4395 23.3145 15.1875 23.625 15.1875H24.75C25.0605 15.1875 25.3125 15.4395 25.3125 15.75C25.3125 16.0605 25.0605 16.3125 24.75 16.3125Z" fill="#F68820"/>
                                     </g>
                                     <g clip-path="url(#clip24_2645_649)">
                                     <path d="M52.875 45C51.6319 45 50.625 43.9931 50.625 42.75C50.625 41.5069 51.6319 40.5 52.875 40.5C54.1181 40.5 55.125 41.5069 55.125 42.75C55.125 43.9931 54.1181 45 52.875 45Z" fill="#F68820"/>
                                     </g>
                                     <g clip-path="url(#clip25_2645_649)">
                                     <path d="M52.031 23.3439L52.8747 24.1877L55.406 21.6564C55.8717 21.1907 56.6277 21.1907 57.0935 21.6564C57.5592 22.1222 57.5592 22.8782 57.0935 23.3439L53.7185 26.7189C53.2527 27.1847 52.4967 27.1847 52.031 26.7189L50.3435 25.0314C49.8777 24.5657 49.8777 23.8097 50.3435 23.3439C50.8092 22.8782 51.5652 22.8782 52.031 23.3439Z" fill="#5C76B2"/>
                                     </g>
                                     <g clip-path="url(#clip26_2645_649)">
                                     <path d="M52.031 32.3439L52.8747 33.1877L55.406 30.6564C55.8717 30.1907 56.6277 30.1907 57.0935 30.6564C57.5592 31.1222 57.5592 31.8782 57.0935 32.3439L53.7185 35.7189C53.2527 36.1847 52.4967 36.1847 52.031 35.7189L50.3435 34.0314C49.8777 33.5657 49.8777 32.8097 50.3435 32.3439C50.8092 31.8782 51.5652 31.8782 52.031 32.3439Z" fill="#5C76B2"/>
                                     </g>
                                     </g>
                                     </g>
                                     <defs>
                                     <clipPath id="clip0_2645_649">
                                     <rect width="72" height="72" fill="white"/>
                                     </clipPath>
                                     <clipPath id="clip1_2645_649">
                                     <rect width="67.5" height="67.5" fill="white" transform="translate(2.25 2.25)"/>
                                     </clipPath>
                                     <clipPath id="clip2_2645_649">
                                     <rect width="63" height="40.5" fill="white" transform="translate(6.75 13.5)"/>
                                     </clipPath>
                                     <clipPath id="clip3_2645_649">
                                     <rect width="63" height="6.75" fill="white" transform="translate(6.75 54)"/>
                                     </clipPath>
                                     <clipPath id="clip4_2645_649">
                                     <rect width="58.5" height="40.5" fill="white" transform="translate(6.75 13.5)"/>
                                     </clipPath>
                                     <clipPath id="clip5_2645_649">
                                     <rect width="58.5" height="6.75" fill="white" transform="translate(6.75 54)"/>
                                     </clipPath>
                                     <clipPath id="clip6_2645_649">
                                     <rect width="49.5" height="31.5" fill="white" transform="translate(11.25 18)"/>
                                     </clipPath>
                                     <clipPath id="clip7_2645_649">
                                     <rect width="29.25" height="4.5" fill="white" transform="translate(15.75 22.5)"/>
                                     </clipPath>
                                     <clipPath id="clip8_2645_649">
                                     <rect width="29.25" height="4.5" fill="white" transform="translate(15.75 31.5)"/>
                                     </clipPath>
                                     <clipPath id="clip9_2645_649">
                                     <rect width="29.25" height="4.5" fill="white" transform="translate(15.75 40.5)"/>
                                     </clipPath>
                                     <clipPath id="clip10_2645_649">
                                     <rect width="4.5" height="4.5" fill="white" transform="translate(42.1875 60.75)"/>
                                     </clipPath>
                                     <clipPath id="clip11_2645_649">
                                     <rect width="10.6875" height="4.5" fill="white" transform="translate(31.5 60.75)"/>
                                     </clipPath>
                                     <clipPath id="clip12_2645_649">
                                     <rect width="37.125" height="4.5" fill="white" transform="translate(18.5625 65.25)"/>
                                     </clipPath>
                                 <clipPath id="clip13_2645_649">
                                 <rect width="13.5" height="4.5" fill="white" transform="translate(42.1875 65.25)"/>
                                 </clipPath>
                                 <clipPath id="clip14_2645_649">
                                 <rect width="30.375" height="27" fill="white" transform="translate(2.25 2.25)"/>
                                 </clipPath>
                                 <clipPath id="clip15_2645_649">
                                 <rect width="27" height="27" fill="white" transform="translate(2.25 2.25)"/>
                                 </clipPath>
                                 <clipPath id="clip16_2645_649">
                                 <rect width="22.5" height="22.5" fill="white" transform="translate(4.5 4.5)"/>
                                 </clipPath>
                                 <clipPath id="clip17_2645_649">
                                 <rect width="1.125" height="10.125" fill="white" transform="translate(15.1875 6.1875)"/>
                                 </clipPath>
                                   <clipPath id="clip18_2645_649">
                                   <rect width="5.89669" height="5.89754" fill="white" transform="translate(10.4141 15.1885)"/>
                                   </clipPath>
                                   <clipPath id="clip19_2645_649">
                                   <rect width="4.5" height="4.5" fill="white" transform="translate(13.5 13.5)"/>
                                   </clipPath>
                                   <clipPath id="clip20_2645_649">
                                   <rect width="2.25" height="2.25" fill="white" transform="translate(14.625 14.625)"/>
                                   </clipPath>
                                   <clipPath id="clip21_2645_649">
                                   <rect width="2.25" height="1.125" fill="white" transform="translate(6.1875 15.1875)"/>
                                   </clipPath>
                                   <clipPath id="clip22_2645_649">
                                   <rect width="1.125" height="2.25" fill="white" transform="translate(15.1875 23.0625)"/>
                                   </clipPath>
                                   <clipPath id="clip23_2645_649">
                                   <rect width="2.25" height="1.125" fill="white" transform="translate(23.0625 15.1875)"/>
                                   </clipPath>
                                   <clipPath id="clip24_2645_649">
                                   <rect width="4.5" height="4.5" fill="white" transform="translate(50.625 40.5)"/>
                                   </clipPath>
                                   <clipPath id="clip25_2645_649">
                                   <rect width="7.44863" height="5.76112" fill="white" transform="translate(49.9941 21.3071)"/>
                                   </clipPath>
                                   <clipPath id="clip26_2645_649">
                                   <rect width="7.44863" height="5.76113" fill="white" transform="translate(49.9941 30.3071)"/>
                                   </clipPath>
                                   </defs>
    </symbol>
<symbol id="telescope" viewBox="0 0 72 72">
                                <g clip-path="url(#clip0_2645_703)">
                            <g clip-path="url(#clip1_2645_703)">
                            <path d="M40.5332 24.4541C43.0185 24.4541 45.0332 22.4394 45.0332 19.9541C45.0332 17.4688 43.0185 15.4541 40.5332 15.4541C38.0479 15.4541 36.0332 17.4688 36.0332 19.9541C36.0332 22.4394 38.0479 24.4541 40.5332 24.4541Z" fill="#F68820"/>
                            </g>
                            <path d="M64.8332 65.8541L45.0332 39.4537V20.5166C45.0332 19.2746 44.0252 18.2666 42.7832 18.2666C41.5412 18.2666 40.5332 19.2746 40.5332 20.5166V39.4537L20.7332 65.8541C19.9874 66.8486 20.1899 68.2594 21.1832 69.0041C21.5882 69.309 22.0619 69.4541 22.5321 69.4541C23.2161 69.4541 23.8911 69.1436 24.3344 68.5541L40.5344 46.9541V67.2041C40.5344 68.4461 41.5424 69.4541 42.7844 69.4541C44.0264 69.4541 45.0344 68.4461 45.0344 67.2041V46.9541L61.2344 68.5541C61.6765 69.1425 62.3526 69.4541 63.0366 69.4541C63.5057 69.4541 63.9805 69.3079 64.3855 69.0041C65.3766 68.2594 65.578 66.8486 64.8332 65.8541Z" fill="#55525B"/>
                            <g clip-path="url(#clip2_2645_703)">
                            <path d="M36.0301 53.7042C35.0907 53.7042 34.1435 53.4106 33.3335 52.8042C31.3445 51.3125 30.9428 48.4921 32.4335 46.5031L39.1835 37.5031C40.6763 35.5152 43.4956 35.1147 45.4835 36.6031C47.4725 38.0948 47.8741 40.9152 46.3835 42.9042L39.6335 51.9042C38.7492 53.0832 37.3981 53.7042 36.0301 53.7042Z" fill="#5C76B2"/>
                            </g>
                            <g clip-path="url(#clip3_2645_703)">
                            <path d="M49.5365 53.7043C48.1685 53.7043 46.8174 53.0833 45.9331 51.9044L39.1831 42.9044C37.6925 40.9154 38.0953 38.0961 40.0831 36.6032C42.0699 35.1137 44.8903 35.5131 46.3831 37.5032L53.1331 46.5032C54.6238 48.4922 54.221 51.3115 52.2331 52.8043C51.4231 53.4118 50.4759 53.7043 49.5365 53.7043Z" fill="#5C76B2"/>
                            </g>
                            <g clip-path="url(#clip4_2645_703)">
                            <g clip-path="url(#clip5_2645_703)">
                            <path d="M63.7962 13.4958L59.3648 12.7139C55.6939 12.067 52.1929 14.5184 51.5449 18.1893C50.8981 21.8601 53.3494 25.3611 57.0203 26.0091L61.4517 26.791C65.1226 27.4379 68.6236 24.9865 69.2716 21.3156C69.9185 17.6436 67.4671 14.1426 63.7962 13.4958Z" fill="#F68820"/>
                            </g>
                            <g clip-path="url(#clip6_2645_703)">
                            <path d="M58.1914 26.1113C61.9193 26.1113 64.9414 23.0892 64.9414 19.3613C64.9414 15.6334 61.9193 12.6113 58.1914 12.6113C54.4635 12.6113 51.4414 15.6334 51.4414 19.3613C51.4414 23.0892 54.4635 26.1113 58.1914 26.1113Z" fill="#FBBE18"/>
                            </g>
                            <g clip-path="url(#clip7_2645_703)">
                            <path d="M57.4108 23.7939L41.9004 21.059L43.463 12.1963L58.9734 14.9312C61.4214 15.3632 63.0549 17.6964 62.624 20.1444C62.192 22.5902 59.8588 24.2248 57.4108 23.7939Z" fill="#6FA4D8"/>
                            </g>
                            <g clip-path="url(#clip8_2645_703)">
                            <path d="M41.9004 21.0578L57.4108 23.7927C59.8588 24.2247 62.192 22.5901 62.624 20.1421L42.6823 16.6265L41.9004 21.0578Z" fill="#5C76B2"/>
                            </g>
                            <g clip-path="url(#clip9_2645_703)">
                            <path d="M37.0768 22.4925L21.5664 19.7577L23.9109 6.4624L39.4213 9.19728C43.0922 9.84415 45.5435 13.3452 44.8967 17.0172C44.2498 20.6892 40.7488 23.1405 37.0768 22.4925Z" fill="#6FA4D8"/>
                            </g>
                            <g clip-path="url(#clip10_2645_703)">
                            <path d="M21.5664 19.7575L37.0768 22.4924C40.7477 23.1392 44.2487 20.6879 44.8967 17.017L22.7387 13.1099L21.5664 19.7575Z" fill="#5C76B2"/>
                            </g>
                            <g clip-path="url(#clip11_2645_703)">
                            <path d="M20.2603 1.25006L15.8289 0.468182C9.71007 -0.610693 3.87582 3.47531 2.79582 9.59418C1.71694 15.7131 5.80294 21.5473 11.9218 22.6273L16.3532 23.4092C22.4721 24.4881 28.3074 20.4021 29.3863 14.2832C30.4652 8.16318 26.3792 2.32893 20.2603 1.25006Z" fill="#F68820"/>
                            </g>
                            <g clip-path="url(#clip12_2645_703)">
                            <path d="M13.875 22.7974C20.0882 22.7974 25.125 17.7606 25.125 11.5474C25.125 5.33416 20.0882 0.297363 13.875 0.297363C7.6618 0.297363 2.625 5.33416 2.625 11.5474C2.625 17.7606 7.6618 22.7974 13.875 22.7974Z" fill="#FBBE18"/>
                            </g>
                            <g clip-path="url(#clip13_2645_703)">
                            <path d="M13.875 20.5474C18.8456 20.5474 22.875 16.5179 22.875 11.5474C22.875 6.5768 18.8456 2.54736 13.875 2.54736C8.90444 2.54736 4.875 6.5768 4.875 11.5474C4.875 16.5179 8.90444 20.5474 13.875 20.5474Z" fill="#55525B"/>
                            </g>
                            <g clip-path="url(#clip14_2645_703)">
                            <path d="M12.7474 2.61719C9.80889 2.98731 7.22139 4.79856 5.86914 7.43331C6.29102 9.09832 7.64327 10.4483 9.44439 10.7667C11.8924 11.1987 14.2256 9.56407 14.6576 7.11606C14.9738 5.31494 14.1683 3.58244 12.7474 2.61719Z" fill="#B3B4B6"/>
                            </g>
                            </g>
                            <g clip-path="url(#clip15_2645_703)">
                            <path d="M45.0332 24.4541C47.5185 24.4541 49.5332 22.4394 49.5332 19.9541C49.5332 17.4688 47.5185 15.4541 45.0332 15.4541C42.5479 15.4541 40.5332 17.4688 40.5332 19.9541C40.5332 22.4394 42.5479 24.4541 45.0332 24.4541Z" fill="#FBBE18"/>
                            </g>
                            <g clip-path="url(#clip16_2645_703)">
                            <path d="M45.0332 22.2041C46.2758 22.2041 47.2832 21.1967 47.2832 19.9541C47.2832 18.7115 46.2758 17.7041 45.0332 17.7041C43.7906 17.7041 42.7832 18.7115 42.7832 19.9541C42.7832 21.1967 43.7906 22.2041 45.0332 22.2041Z" fill="#55525B"/>
                            </g>
                            <g clip-path="url(#clip17_2645_703)">
                            <path d="M22.5332 71.7041C25.0185 71.7041 27.0332 69.6894 27.0332 67.2041C27.0332 64.7188 25.0185 62.7041 22.5332 62.7041C20.0479 62.7041 18.0332 64.7188 18.0332 67.2041C18.0332 69.6894 20.0479 71.7041 22.5332 71.7041Z" fill="#F68820"/>
                            </g>
                            <g clip-path="url(#clip18_2645_703)">
                            <path d="M63.0332 71.7041C65.5185 71.7041 67.5332 69.6894 67.5332 67.2041C67.5332 64.7188 65.5185 62.7041 63.0332 62.7041C60.5479 62.7041 58.5332 64.7188 58.5332 67.2041C58.5332 69.6894 60.5479 71.7041 63.0332 71.7041Z" fill="#F68820"/>
                            </g>
                            <g clip-path="url(#clip19_2645_703)">
                            <path d="M42.7832 71.7041C45.2685 71.7041 47.2832 69.6894 47.2832 67.2041C47.2832 64.7188 45.2685 62.7041 42.7832 62.7041C40.2979 62.7041 38.2832 64.7188 38.2832 67.2041C38.2832 69.6894 40.2979 71.7041 42.7832 71.7041Z" fill="#F68820"/>
                            </g>
                            <g clip-path="url(#clip20_2645_703)">
                            <path d="M42.7832 53.7041C40.2981 53.7041 38.2832 51.6892 38.2832 49.2041V40.2041C38.2832 37.719 40.2981 35.7041 42.7832 35.7041C45.2683 35.7041 47.2832 37.719 47.2832 40.2041V49.2041C47.2832 51.6892 45.2683 53.7041 42.7832 53.7041Z" fill="#F68820"/>
                            </g>
                            <g clip-path="url(#clip21_2645_703)">
                            <path d="M42.7832 53.7041C40.2981 53.7041 38.2832 51.6892 38.2832 49.2041V40.2041C38.2832 37.719 40.2981 35.7041 42.7832 35.7041C45.2683 35.7041 47.2832 37.719 47.2832 40.2041V49.2041C47.2832 51.6892 45.2683 53.7041 42.7832 53.7041Z" fill="#6FA4D8"/>
                            </g>
                            </g>
                                <defs>
                                <clipPath id="clip0_2645_703">
                                <rect width="66.7514" height="71.4089" fill="white" transform="translate(2.62305 0.29541)"/>
                                </clipPath>
                                <clipPath id="clip1_2645_703">
                                <rect width="9" height="8.99999" fill="white" transform="translate(36.0332 15.4541)"/>
                                </clipPath>
                                <clipPath id="clip2_2645_703">
                                <rect width="15.7505" height="18.0001" fill="white" transform="translate(31.5332 35.7041)"/>
                                </clipPath>
                                <clipPath id="clip3_2645_703">
                                <rect width="15.7499" height="18.0012" fill="white" transform="translate(38.2832 35.7031)"/>
                                </clipPath>
                                <clipPath id="clip4_2645_703">
                                <rect width="66.7514" height="26.5991" fill="white" transform="translate(2.62305 0.29541)"/>
                                </clipPath>
                                <clipPath id="clip5_2645_703">
                                <rect width="17.9337" height="14.2842" fill="white" transform="translate(51.4414 12.6104)"/>
                                </clipPath>
                                <clipPath id="clip6_2645_703">
                                <rect width="13.5" height="13.5" fill="white" transform="translate(51.4414 12.6113)"/>
                                </clipPath>
                                <clipPath id="clip7_2645_703">
                                <rect width="20.7926" height="11.6665" fill="white" transform="translate(41.9004 12.1963)"/>
                                </clipPath>
                                <clipPath id="clip8_2645_703">
                                <rect width="20.7236" height="7.23548" fill="white" transform="translate(41.9004 16.6265)"/>
                                </clipPath>
                                <clipPath id="clip9_2645_703">
                                <rect width="23.4338" height="16.134" fill="white" transform="translate(21.5664 6.4624)"/>
                                </clipPath>
                                <clipPath id="clip10_2645_703">
                                <rect width="23.3303" height="9.48603" fill="white" transform="translate(21.5664 13.1099)"/>
                                </clipPath>
                                <clipPath id="clip11_2645_703">
                                <rect width="26.936" height="23.2865" fill="white" transform="translate(2.62305 0.29541)"/>
                                </clipPath>
                                <clipPath id="clip12_2645_703">
                                <rect width="22.5" height="22.5" fill="white" transform="translate(2.625 0.297363)"/>
                                </clipPath>
                                <clipPath id="clip13_2645_703">
                                <rect width="18" height="18" fill="white" transform="translate(4.875 2.54736)"/>
                                </clipPath>
                                <clipPath id="clip14_2645_703">
                                <rect width="8.85681" height="8.21873" fill="white" transform="translate(5.86914 2.61719)"/>
                                </clipPath>
                                <clipPath id="clip15_2645_703">
                                <rect width="9" height="8.99999" fill="white" transform="translate(40.5332 15.4541)"/>
                                </clipPath>
                                <clipPath id="clip16_2645_703">
                                <rect width="4.5" height="4.49999" fill="white" transform="translate(42.7832 17.7041)"/>
                                </clipPath>
                                <clipPath id="clip17_2645_703">
                                <rect width="9" height="9" fill="white" transform="translate(18.0332 62.7041)"/>
                                </clipPath>
                                <clipPath id="clip18_2645_703">
                                <rect width="9" height="9" fill="white" transform="translate(58.5332 62.7041)"/>
                                </clipPath>
                                <clipPath id="clip19_2645_703">
                                <rect width="9" height="9" fill="white" transform="translate(38.2832 62.7041)"/>
                                </clipPath>
                                <clipPath id="clip20_2645_703">
                                <rect width="9" height="18" fill="white" transform="translate(38.2832 35.7041)"/>
                                </clipPath>
                                <clipPath id="clip21_2645_703">
                                <rect width="9" height="18" fill="white" transform="translate(38.2832 35.7041)"/>
                                </clipPath>
                                </defs>
</symbol>
    <symbol id="flask" viewBox="0 0 72 72">
                                    <g clip-path="url(#clip0_2645_749)">
                                <g clip-path="url(#clip1_2645_749)">
                                <path d="M30.7501 42.875V31.625H17.2501V42.875L1.0501 64.475C-0.618271 66.7003 0.969104 69.875 3.7501 69.875H44.2501C47.0311 69.875 48.6185 66.7003 46.9501 64.475L30.7501 42.875Z" fill="#6FA4D8"/>
                                </g>
                                <g clip-path="url(#clip2_2645_749)">
                                <path d="M46.95 64.475L30.75 42.875V31.625H24H17.25V34.4375H22.3125C23.244 34.4375 24 35.1935 24 36.125V42.875L33 69.875H44.25C47.031 69.875 48.6184 66.7003 46.95 64.475Z" fill="#5C76B2"/>
                                </g>
                                <g clip-path="url(#clip3_2645_749)">
                                <path d="M30.75 31.625H17.25C16.0069 31.625 15 30.6181 15 29.375C15 28.1319 16.0069 27.125 17.25 27.125H30.75C31.9931 27.125 33 28.1319 33 29.375C33 30.6181 31.9931 31.625 30.75 31.625Z" fill="#6FA4D8"/>
                                </g>
                                <g clip-path="url(#clip4_2645_749)">
                                <path d="M30.75 27.125H24C25.2431 27.125 26.25 28.1319 26.25 29.375C26.25 30.6181 25.2431 31.625 24 31.625H30.75C31.9931 31.625 33 30.6181 33 29.375C33 28.1319 31.9931 27.125 30.75 27.125Z" fill="#5C76B2"/>
                                </g>
                                <g clip-path="url(#clip5_2645_749)">
                                <path d="M42 65.3749H6L14.4375 54.1249L14.4386 54.1238C16.8281 50.9356 21.6105 50.9345 24.0011 54.1216L24.0022 54.1227C26.3929 57.3087 31.1707 57.3098 33.5625 54.1249L42 65.3749Z" fill="#F68820"/>
                                </g>
                                <g clip-path="url(#clip6_2645_749)">
                                <path d="M33.5625 54.1249L33.5614 54.1238C31.1719 50.9356 26.3895 50.9345 23.9989 54.1216L23.9977 54.1227C21.6071 57.3087 16.8293 57.3098 14.4375 54.1249L6 65.3749H42L33.5625 54.1249Z" fill="#FBBE18"/>
                                </g>
                                <g clip-path="url(#clip7_2645_749)">
                                <path d="M33.5626 54.125L33.5615 54.1239C31.9753 52.0066 29.336 51.3035 27.041 51.9976L31.5005 65.375H42.0001L33.5626 54.125Z" fill="#F68820"/>
                                </g>
                                <g clip-path="url(#clip8_2645_749)">
                                <path d="M20.0625 61.4375C20.9945 61.4375 21.75 60.682 21.75 59.75C21.75 58.818 20.9945 58.0625 20.0625 58.0625C19.1305 58.0625 18.375 58.818 18.375 59.75C18.375 60.682 19.1305 61.4375 20.0625 61.4375Z" fill="#F68820"/>
                                </g>
                                <g clip-path="url(#clip9_2645_749)">
                                <path d="M16.125 63.6875C16.7463 63.6875 17.25 63.1838 17.25 62.5625C17.25 61.9412 16.7463 61.4375 16.125 61.4375C15.5037 61.4375 15 61.9412 15 62.5625C15 63.1838 15.5037 63.6875 16.125 63.6875Z" fill="#F68820"/>
                                </g>
                                <g clip-path="url(#clip10_2645_749)">
                                <path d="M18.375 20.375C21.4816 20.375 24 17.8566 24 14.75C24 11.6434 21.4816 9.125 18.375 9.125C15.2684 9.125 12.75 11.6434 12.75 14.75C12.75 17.8566 15.2684 20.375 18.375 20.375Z" fill="#F68820"/>
                                </g>
                                <g clip-path="url(#clip11_2645_749)">
                                <path d="M16.6875 14.75C17.6195 14.75 18.375 13.9945 18.375 13.0625C18.375 12.1305 17.6195 11.375 16.6875 11.375C15.7555 11.375 15 12.1305 15 13.0625C15 13.9945 15.7555 14.75 16.6875 14.75Z" fill="#FBBE18"/>
                                </g>
                                <g clip-path="url(#clip12_2645_749)">
                                <path d="M29.625 24.875C31.489 24.875 33 23.364 33 21.5C33 19.636 31.489 18.125 29.625 18.125C27.761 18.125 26.25 19.636 26.25 21.5C26.25 23.364 27.761 24.875 29.625 24.875Z" fill="#F68820"/>
                                </g>
                                <g clip-path="url(#clip13_2645_749)">
                                <path d="M28.5 21.5C29.1213 21.5 29.625 20.9963 29.625 20.375C29.625 19.7537 29.1213 19.25 28.5 19.25C27.8787 19.25 27.375 19.7537 27.375 20.375C27.375 20.9963 27.8787 21.5 28.5 21.5Z" fill="#FBBE18"/>
                                </g>
                                <g clip-path="url(#clip14_2645_749)">
                                <path d="M34.4062 1.53125C34.4062 2.3075 33 4.625 33 4.625C33 4.625 31.5938 2.3075 31.5938 1.53125C31.5938 0.755 32.2237 0.125 33 0.125C33.7762 0.125 34.4062 0.755 34.4062 1.53125Z" fill="#F68820"/>
                                </g>
                                <g clip-path="url(#clip15_2645_749)">
                                <path d="M29.0757 2.98483C29.7484 3.37408 31.0523 5.75008 31.0523 5.75008C31.0523 5.75008 28.3422 5.80971 27.6694 5.42158C26.9978 5.03233 26.7672 4.17283 27.1553 3.50008C27.5434 2.82733 28.404 2.59671 29.0757 2.98483Z" fill="#F68820"/>
                                </g>
                                <g clip-path="url(#clip16_2645_749)">
                                <path d="M27.6678 8.32838C28.3405 7.94025 31.0507 7.99988 31.0507 7.99988C31.0507 7.99988 29.7468 10.3759 29.074 10.7651C28.4013 11.1533 27.5418 10.9226 27.1525 10.2499C26.7655 9.57713 26.9962 8.71763 27.6678 8.32838Z" fill="#F68820"/>
                                </g>
                                <g clip-path="url(#clip17_2645_749)">
                                <path d="M31.5938 12.2188C31.5938 11.4425 33 9.125 33 9.125C33 9.125 34.4062 11.4425 34.4062 12.2188C34.4062 12.995 33.7762 13.625 33 13.625C32.2237 13.625 31.5938 12.995 31.5938 12.2188Z" fill="#F68820"/>
                                </g>
                                <g clip-path="url(#clip18_2645_749)">
                                <path d="M36.9258 10.7651C36.2531 10.3759 34.9492 7.99988 34.9492 7.99988C34.9492 7.99988 37.6593 7.94025 38.3321 8.32838C39.0049 8.7165 39.2355 9.57713 38.8474 10.2499C38.4581 10.9226 37.5975 11.1533 36.9258 10.7651Z" fill="#F68820"/>
                                </g>
                                <g clip-path="url(#clip19_2645_749)">
                                <path d="M38.3321 5.4216C37.6593 5.80972 34.9492 5.7501 34.9492 5.7501C34.9492 5.7501 36.2531 3.3741 36.9258 2.98485C37.5986 2.5956 38.4581 2.82735 38.8462 3.5001C39.2343 4.17285 39.0037 5.03235 38.3321 5.4216Z" fill="#F68820"/>
                                </g>
                                </g>
                                <defs>
                                <clipPath id="clip0_2645_749">
                                <rect width="47.2619" height="69.75" fill="white" transform="translate(0.369141 0.125)"/>
                                </clipPath>
                                <clipPath id="clip1_2645_749">
                                <rect width="47.2619" height="38.25" fill="white" transform="translate(0.369141 31.625)"/>
                                </clipPath>
                                <clipPath id="clip2_2645_749">
                                <rect width="30.381" height="38.25" fill="white" transform="translate(17.25 31.625)"/>
                                </clipPath>
                                <clipPath id="clip3_2645_749">
                                <rect width="18" height="4.5" fill="white" transform="translate(15 27.125)"/>
                                </clipPath>
                                <clipPath id="clip4_2645_749">
                                <rect width="9" height="4.5" fill="white" transform="translate(24 27.125)"/>
                                </clipPath>
                                <clipPath id="clip5_2645_749">
                                <rect width="36" height="13.643" fill="white" transform="translate(6 51.7319)"/>
                                </clipPath>
                                <clipPath id="clip6_2645_749">
                                <rect width="36" height="13.643" fill="white" transform="translate(6 51.7319)"/>
                                </clipPath>
                                <clipPath id="clip7_2645_749">
                                <rect width="14.9591" height="13.6357" fill="white" transform="translate(27.041 51.7393)"/>
                                </clipPath>
                                <clipPath id="clip8_2645_749">
                                <rect width="3.375" height="3.375" fill="white" transform="translate(18.375 58.0625)"/>
                                </clipPath>
                                <clipPath id="clip9_2645_749">
                                <rect width="2.25" height="2.25" fill="white" transform="translate(15 61.4375)"/>
                                </clipPath>
                                <clipPath id="clip10_2645_749">
                                <rect width="11.25" height="11.25" fill="white" transform="translate(12.75 9.125)"/>
                                </clipPath>
                                <clipPath id="clip11_2645_749">
                                <rect width="3.375" height="3.375" fill="white" transform="translate(15 11.375)"/>
                                </clipPath>
                                <clipPath id="clip12_2645_749">
                                <rect width="6.75" height="6.75" fill="white" transform="translate(26.25 18.125)"/>
                                </clipPath>
                                <clipPath id="clip13_2645_749">
                                <rect width="2.25" height="2.25" fill="white" transform="translate(27.375 19.25)"/>
                                </clipPath>
                                <clipPath id="clip14_2645_749">
                                <rect width="2.8125" height="4.5" fill="white" transform="translate(31.5938 0.125)"/>
                                </clipPath>
                                <clipPath id="clip15_2645_749">
                                <rect width="4.08548" height="2.95699" fill="white" transform="translate(26.9668 2.79639)"/>
                                </clipPath>
                                <clipPath id="clip16_2645_749">
                                <rect width="4.08582" height="2.95699" fill="white" transform="translate(26.9648 7.99658)"/>
                                </clipPath>
                                <clipPath id="clip17_2645_749">
                                <rect width="2.8125" height="4.5" fill="white" transform="translate(31.5938 9.125)"/>
                                </clipPath>
                                <clipPath id="clip18_2645_749">
                                <rect width="4.08658" height="2.95699" fill="white" transform="translate(34.9492 7.99658)"/>
                                </clipPath>
                                <clipPath id="clip19_2645_749">
                                <rect width="4.08548" height="2.95749" fill="white" transform="translate(34.9492 2.7959)"/>
                                </clipPath>
                                </defs>
    </symbol>
    <symbol id="arrow-link" viewBox="0 0 10 16">
                              <path fill-rule="evenodd" clip-rule="evenodd" d="M0.680771 0.180771C0.737928 0.123469 0.805828 0.0780065 0.880583 0.0469869C0.955337 0.0159672 1.03548 0 1.11641 0C1.19735 0 1.27749 0.0159672 1.35224 0.0469869C1.427 0.0780065 1.4949 0.123469 1.55205 0.180771L8.9358 7.56452C8.9931 7.62168 9.03857 7.68958 9.06959 7.76433C9.10061 7.83909 9.11657 7.91923 9.11657 8.00016C9.11657 8.0811 9.10061 8.16123 9.06959 8.23599C9.03857 8.31074 8.9931 8.37864 8.9358 8.4358L1.55205 15.8196C1.43651 15.9351 1.27981 16 1.11641 16C0.953015 16 0.79631 15.9351 0.680771 15.8196C0.565232 15.704 0.500322 15.5473 0.500322 15.3839C0.500322 15.2205 0.565232 15.0638 0.680771 14.9483L7.63011 8.00016L0.680771 1.05205C0.623469 0.994896 0.578006 0.926996 0.546986 0.852242C0.515967 0.777487 0.5 0.697347 0.5 0.616412C0.5 0.535478 0.515967 0.455338 0.546986 0.380583C0.578006 0.305829 0.623469 0.237928 0.680771 0.180771Z" fill="#96BB7C"/>
    </symbol>
    <symbol id="video-img" viewBox="0 0 93 93">
           <path d="M0 46.3C0 20.7292 20.7292 0 46.3 0C71.8708 0 92.6 20.7292 92.6 46.3C92.6 71.8708 71.8708 92.6 46.3 92.6C20.7292 92.6 0 71.8708 0 46.3Z" fill="#96BB7C"/>
                <g clip-path="url(#clip0_2636_2796)">
                <path d="M54.5396 47.7028L39.4282 56.7265C38.1458 57.4915 36.5 56.5652 36.5 55.0229V36.9757C36.5 35.4359 38.1434 34.5071 39.4282 35.2746L54.5396 44.2982C54.8313 44.4696 55.0738 44.7173 55.2425 45.0163C55.4112 45.3153 55.5 45.6548 55.5 46.0005C55.5 46.3462 55.4112 46.6858 55.2425 46.9848C55.0738 47.2837 54.8313 47.5315 54.5396 47.7028Z" fill="white"/>
                </g>
                <defs>
                <clipPath id="clip0_2636_2796">
                <rect width="19" height="23" fill="white" transform="translate(36.8008 34.7998)"/>
                </clipPath>
                </defs>
    </symbol>
     <symbol id="star" viewBox="0 0 15 16">
      <path d="M15 6.3H9.275L7.5 0.75L5.725 6.3H0L4.625 9.725L2.875 15.25L7.5 11.825L12.125 15.25L10.35 9.7L15 6.3Z" fill="#FFCE31"/>
    </symbol>
     <symbol id="heard" viewBox="0 0 19 17">
                <path d="M9.50016 3.95324L8.13577 2.55662L8.13521 2.55605C7.78731 2.20177 7.37231 1.92037 6.91444 1.72827C6.45657 1.53617 5.96502 1.43723 5.46849 1.43723C4.97196 1.43723 4.4804 1.53617 4.02253 1.72827C3.56474 1.92033 3.14981 2.20167 2.80195 2.55586C2.08795 3.2808 1.68773 4.25748 1.68773 5.275C1.68773 6.29259 2.08801 7.26935 2.80211 7.9943L2.80239 7.99459L9.27739 14.5508L9.49974 14.776L9.72208 14.5508L16.1971 7.99459L16.1974 7.9943C16.9115 7.26935 17.3117 6.29259 17.3117 5.275C17.3117 4.25752 16.9116 3.28088 16.1976 2.55595C15.8499 2.20148 15.435 1.91997 14.9771 1.72791C14.5193 1.53591 14.0278 1.43718 13.5314 1.4375C13.5312 1.4375 13.531 1.4375 13.5307 1.4375L13.531 1.75M9.50016 3.95324L10.8571 2.56949L10.8579 2.5687L11.081 2.7875M9.50016 3.95324L10.8563 2.57036M9.50016 3.95324L10.8563 2.57036M13.531 1.75C13.0738 1.74935 12.6213 1.84089 12.2003 2.01915C11.7793 2.19741 11.3986 2.45874 11.081 2.7875M13.531 1.75C13.986 1.74962 14.4366 1.84008 14.8562 2.01609C15.2758 2.1921 15.6561 2.45011 15.9747 2.775L13.531 1.75ZM11.081 2.7875L10.8563 2.57036M11.081 2.7875L10.8563 2.57036M13.5307 0.812502L13.5309 0.812502C14.1108 0.812661 14.6849 0.92827 15.2196 1.15259C15.7544 1.37691 16.2391 1.70544 16.6456 2.11904C17.4745 2.96287 17.9389 4.09841 17.9389 5.28125C17.9389 6.46391 17.4746 7.59929 16.646 8.44307C16.6458 8.44322 16.6457 8.44336 16.6456 8.44351L9.49974 15.6802L2.35392 8.44351C2.35381 8.4434 2.35371 8.44329 2.3536 8.44318C1.52488 7.59939 1.06055 6.46396 1.06055 5.28125C1.06055 4.09846 1.52495 2.96295 2.35378 2.11913C2.76036 1.70575 3.24515 1.37744 3.77991 1.15333C4.31466 0.929228 4.88867 0.813811 5.46849 0.813811C6.0483 0.813811 6.62232 0.929228 7.15707 1.15333C7.69182 1.37744 8.17662 1.70575 8.58319 2.11913L8.58403 2.11998L9.27778 2.81998L9.49974 3.04394L9.7217 2.81998L10.4155 2.11998L10.4166 2.11879C10.8226 1.70475 11.3072 1.37593 11.8419 1.15161C12.3767 0.927301 12.9508 0.81201 13.5307 0.812502Z" fill="#BDBDBD" stroke="#252B42" stroke-width="0.625"/>
    </symbol>
     <symbol id="cart" viewBox="0 0 20 19">
           <path d="M0.5 0.633333C0.5 0.465363 0.566728 0.304272 0.685505 0.185499C0.804281 0.066726 0.965377 0 1.13335 0H3.03341C3.17469 3.90279e-05 3.3119 0.0473109 3.42322 0.134298C3.53454 0.221285 3.61357 0.342993 3.64776 0.480067L4.16078 2.53333H18.8672C18.9602 2.53342 19.0521 2.55398 19.1362 2.59356C19.2204 2.63315 19.2948 2.69077 19.3541 2.76235C19.4135 2.83393 19.4564 2.9177 19.4797 3.00772C19.5031 3.09774 19.5063 3.19179 19.4892 3.2832L17.5891 13.4165C17.562 13.5617 17.4849 13.6927 17.3714 13.7871C17.2578 13.8815 17.1148 13.9332 16.9672 13.9333H5.56682C5.41917 13.9332 5.2762 13.8815 5.16263 13.7871C5.04907 13.6927 4.97204 13.5617 4.94487 13.4165L3.04608 3.3022L2.5394 1.26667H1.13335C0.965377 1.26667 0.804281 1.19994 0.685505 1.08117C0.566728 0.962395 0.5 0.801304 0.5 0.633333ZM4.42932 3.8L6.09251 12.6667H16.4415L18.1047 3.8H4.42932ZM6.83353 13.9333C6.16163 13.9333 5.51724 14.2002 5.04214 14.6753C4.56703 15.1504 4.30012 15.7948 4.30012 16.4667C4.30012 17.1385 4.56703 17.7829 5.04214 18.258C5.51724 18.7331 6.16163 19 6.83353 19C7.50543 19 8.14982 18.7331 8.62492 18.258C9.10003 17.7829 9.36694 17.1385 9.36694 16.4667C9.36694 15.7948 9.10003 15.1504 8.62492 14.6753C8.14982 14.2002 7.50543 13.9333 6.83353 13.9333ZM15.7005 13.9333C15.0286 13.9333 14.3842 14.2002 13.9091 14.6753C13.434 15.1504 13.1671 15.7948 13.1671 16.4667C13.1671 17.1385 13.434 17.7829 13.9091 18.258C14.3842 18.7331 15.0286 19 15.7005 19C16.3724 19 17.0168 18.7331 17.4919 18.258C17.967 17.7829 18.2339 17.1385 18.2339 16.4667C18.2339 15.7948 17.967 15.1504 17.4919 14.6753C17.0168 14.2002 16.3724 13.9333 15.7005 13.9333ZM6.83353 15.2C7.16948 15.2 7.49167 15.3335 7.72923 15.571C7.96678 15.8085 8.10023 16.1307 8.10023 16.4667C8.10023 16.8026 7.96678 17.1248 7.72923 17.3623C7.49167 17.5999 7.16948 17.7333 6.83353 17.7333C6.49758 17.7333 6.17539 17.5999 5.93783 17.3623C5.70028 17.1248 5.56682 16.8026 5.56682 16.4667C5.56682 16.1307 5.70028 15.8085 5.93783 15.571C6.17539 15.3335 6.49758 15.2 6.83353 15.2ZM15.7005 15.2C16.0364 15.2 16.3586 15.3335 16.5962 15.571C16.8337 15.8085 16.9672 16.1307 16.9672 16.4667C16.9672 16.8026 16.8337 17.1248 16.5962 17.3623C16.3586 17.5999 16.0364 17.7333 15.7005 17.7333C15.3645 17.7333 15.0423 17.5999 14.8048 17.3623C14.5672 17.1248 14.4338 16.8026 14.4338 16.4667C14.4338 16.1307 14.5672 15.8085 14.8048 15.571C15.0423 15.3335 15.3645 15.2 15.7005 15.2Z" fill="#252B42"/>
    </symbol>
     <symbol id="eye" viewBox="0 0 21 20" fill="none">
        <path d="M13 10C13 10.663 12.7366 11.2989 12.2678 11.7678C11.7989 12.2366 11.163 12.5 10.5 12.5C9.83696 12.5 9.20107 12.2366 8.73223 11.7678C8.26339 11.2989 8 10.663 8 10C8 9.33696 8.26339 8.70107 8.73223 8.23223C9.20107 7.76339 9.83696 7.5 10.5 7.5C11.163 7.5 11.7989 7.76339 12.2678 8.23223C12.7366 8.70107 13 9.33696 13 10Z" fill="black"/>
        <path d="M2.5 10C2.5 10 5.5 4.5 10.5 4.5C15.5 4.5 18.5 10 18.5 10C18.5 10 15.5 15.5 10.5 15.5C5.5 15.5 2.5 10 2.5 10ZM10.5 13.5C11.4283 13.5 12.3185 13.1313 12.9749 12.4749C13.6313 11.8185 14 10.9283 14 10C14 9.07174 13.6313 8.1815 12.9749 7.52513C12.3185 6.86875 11.4283 6.5 10.5 6.5C9.57174 6.5 8.6815 6.86875 8.02513 7.52513C7.36875 8.1815 7 9.07174 7 10C7 10.9283 7.36875 11.8185 8.02513 12.4749C8.6815 13.1313 9.57174 13.5 10.5 13.5Z" fill="black"/>
    </symbol>
     <symbol id="dowland" viewBox="0 0 17 16" fill="none">
             <g clip-path="url(#clip0_2636_2913)">
              <path d="M1 9.8999C1.13261 9.8999 1.25979 9.95258 1.35355 10.0463C1.44732 10.1401 1.5 10.2673 1.5 10.3999V12.8999C1.5 13.1651 1.60536 13.4195 1.79289 13.607C1.98043 13.7945 2.23478 13.8999 2.5 13.8999H14.5C14.7652 13.8999 15.0196 13.7945 15.2071 13.607C15.3946 13.4195 15.5 13.1651 15.5 12.8999V10.3999C15.5 10.2673 15.5527 10.1401 15.6464 10.0463C15.7402 9.95258 15.8674 9.8999 16 9.8999C16.1326 9.8999 16.2598 9.95258 16.3536 10.0463C16.4473 10.1401 16.5 10.2673 16.5 10.3999V12.8999C16.5 13.4303 16.2893 13.939 15.9142 14.3141C15.5391 14.6892 15.0304 14.8999 14.5 14.8999H2.5C1.96957 14.8999 1.46086 14.6892 1.08579 14.3141C0.710714 13.939 0.5 13.4303 0.5 12.8999V10.3999C0.5 10.2673 0.552678 10.1401 0.646447 10.0463C0.740215 9.95258 0.867392 9.8999 1 9.8999Z" fill="#737373"/>
              <path d="M8.14663 11.854C8.19308 11.9006 8.24825 11.9375 8.309 11.9627C8.36974 11.9879 8.43486 12.0009 8.50063 12.0009C8.5664 12.0009 8.63152 11.9879 8.69227 11.9627C8.75301 11.9375 8.80819 11.9006 8.85463 11.854L11.8546 8.854C11.9485 8.76011 12.0013 8.63278 12.0013 8.5C12.0013 8.36722 11.9485 8.23989 11.8546 8.146C11.7607 8.05211 11.6334 7.99937 11.5006 7.99937C11.3679 7.99937 11.2405 8.05211 11.1466 8.146L9.00063 10.293V1.5C9.00063 1.36739 8.94795 1.24021 8.85419 1.14645C8.76042 1.05268 8.63324 1 8.50063 1C8.36802 1 8.24085 1.05268 8.14708 1.14645C8.05331 1.24021 8.00063 1.36739 8.00063 1.5V10.293L5.85463 8.146C5.76075 8.05211 5.63341 7.99937 5.50063 7.99937C5.36786 7.99937 5.24052 8.05211 5.14663 8.146C5.05275 8.23989 5 8.36722 5 8.5C5 8.63278 5.05275 8.76011 5.14663 8.854L8.14663 11.854Z" fill="#737373"/>
              </g>
              <defs>
              <clipPath id="clip0_2636_2913">
              <rect width="16" height="16" fill="white" transform="translate(0.5)"/>
              </clipPath>
              </defs>
    </symbol>
     <symbol id="arrow-btn" viewBox="0 0 10 16" fill="none">
            <g>
                    <path d="M0.5 13.7143L6.21428 8L0.5 2.28571L1.64286 0L9.64286 8L1.64286 16L0.5 13.7143Z" fill="#96BB7C"/>
            
            </g>
    </symbol>
     <symbol id="star-2" viewBox="0 0 20 20" fill="none">
            <g>
            
                  <path d="M19.0969 7.41964C19.0392 7.24983 18.9331 7.10061 18.7916 6.99043C18.6501 6.88024 18.4795 6.81389 18.3007 6.79959L13.0716 6.38408L10.8087 1.37506C10.7367 1.21373 10.6195 1.07671 10.4712 0.980522C10.323 0.884337 10.1501 0.833105 9.97344 0.833008C9.79675 0.832911 9.62381 0.883954 9.47548 0.979976C9.32715 1.076 9.20979 1.2129 9.13755 1.37415L6.87473 6.38408L1.64558 6.79959C1.46989 6.8135 1.30193 6.87774 1.16179 6.98462C1.02165 7.0915 0.91527 7.23648 0.855374 7.40224C0.795479 7.56799 0.784605 7.74749 0.824053 7.91926C0.8635 8.09103 0.951599 8.2478 1.07781 8.37081L4.94212 12.1379L3.57544 18.0559C3.53394 18.235 3.54724 18.4225 3.61361 18.594C3.67999 18.7655 3.79637 18.913 3.94765 19.0175C4.09894 19.1221 4.27815 19.1787 4.46202 19.1801C4.6459 19.1815 4.82594 19.1276 4.97881 19.0254L9.97315 15.6958L14.9675 19.0254C15.1237 19.1291 15.308 19.1825 15.4955 19.1784C15.683 19.1743 15.8647 19.1129 16.0162 19.0024C16.1678 18.8919 16.2819 18.7377 16.3431 18.5604C16.4044 18.3832 16.4099 18.1914 16.3589 18.0109L14.6813 12.1406L18.8419 8.39649C19.1143 8.15067 19.2143 7.76727 19.0969 7.41964Z" fill="#F3CD03"/>
            </g>
    </symbol>
    <symbol id="star-border" viewBox="0 0 20 20" fill="none">
          <g>
              <path d="M4.99967 12.1374L3.633 18.0554C3.59068 18.2346 3.60338 18.4224 3.66945 18.5943C3.73552 18.7662 3.85189 18.9141 4.00335 19.0188C4.15481 19.1235 4.33432 19.1801 4.51845 19.1812C4.70258 19.1823 4.88275 19.1278 5.03545 19.0249L10.0298 15.6954L15.0241 19.0249C15.1804 19.1287 15.3646 19.1821 15.5521 19.178C15.7396 19.1739 15.9213 19.1124 16.0729 19.0019C16.2244 18.8915 16.3385 18.7372 16.3998 18.56C16.461 18.3827 16.4665 18.191 16.4156 18.0105L14.7379 12.1402L18.8985 8.39603C19.0318 8.27605 19.1269 8.11963 19.1722 7.94614C19.2175 7.77264 19.211 7.58967 19.1534 7.41986C19.0958 7.25004 18.9897 7.10083 18.8483 6.99067C18.7068 6.88051 18.5361 6.81423 18.3574 6.80004L13.1282 6.38362L10.8654 1.3746C10.7932 1.21331 10.6759 1.07635 10.5277 0.980249C10.3794 0.884145 10.2065 0.833008 10.0298 0.833008C9.85309 0.833008 9.68017 0.884145 9.5319 0.980249C9.38363 1.07635 9.26634 1.21331 9.19419 1.3746L6.93137 6.38362L1.70222 6.79913C1.52653 6.81305 1.35857 6.87729 1.21843 6.98416C1.07829 7.09104 0.97191 7.23602 0.912015 7.40178C0.85212 7.56753 0.841246 7.74703 0.880693 7.9188C0.920141 8.09057 1.00824 8.24734 1.13445 8.37035L4.99967 12.1374ZM7.61654 8.16947C7.78027 8.15658 7.9375 8.09987 8.07177 8.0053C8.20604 7.91073 8.31239 7.78179 8.37968 7.63198L10.0298 3.98047L11.6799 7.63198C11.7472 7.78179 11.8535 7.91073 11.9878 8.0053C12.1221 8.09987 12.2793 8.15658 12.443 8.16947L16.0863 8.4584L13.086 11.1587C12.8255 11.3936 12.7219 11.7549 12.8173 12.0925L13.9666 16.1146L10.5398 13.8297C10.3894 13.7288 10.2123 13.6749 10.0312 13.6749C9.85002 13.6749 9.67297 13.7288 9.52256 13.8297L5.94167 16.2173L6.90477 12.0475C6.94008 11.8942 6.93534 11.7343 6.89101 11.5833C6.84667 11.4323 6.76423 11.2953 6.65161 11.1853L3.86506 8.46849L7.61654 8.16947Z" fill="#F3CD03"/>
          
          </g>
    </symbol>
    <symbol id="fb" viewBox="0 0 24 23" fill="none">
        <g>
            <path fill-rule="evenodd" clip-rule="evenodd" d="M23.5 11.5704C23.5 5.1801 18.3515 0 12.0014 0C5.64848 0.00143732 0.5 5.1801 0.5 11.5719C0.5 17.3456 4.7056 22.1319 10.2019 23V14.9151H7.28415V11.5719H10.2048V9.02062C10.2048 6.12155 11.9224 4.52037 14.5484 4.52037C15.8075 4.52037 17.1226 4.74603 17.1226 4.74603V7.59193H15.6724C14.2451 7.59193 13.7995 8.4845 13.7995 9.40008V11.5704H16.9875L16.4787 14.9136H13.7981V22.9986C19.2944 22.1304 23.5 17.3441 23.5 11.5704Z" fill="#96BB7C"/>
        </g>
    </symbol>
    <symbol id="instagram" viewBox="0 0 24 23" fill="none">

      <g>
      
       <path d="M12.5 1C9.51488 1 9.1395 1.01375 7.96663 1.066C6.79375 1.121 5.99487 1.30525 5.295 1.5775C4.56088 1.85363 3.89593 2.28676 3.34663 2.84663C2.7871 3.39621 2.35402 4.06108 2.0775 4.795C1.80525 5.4935 1.61963 6.29375 1.566 7.4625C1.51375 8.63812 1.5 9.01213 1.5 12.0014C1.5 14.9879 1.51375 15.3619 1.566 16.5347C1.621 17.7062
                    1.80525 18.5051 2.0775 19.205C2.35938 19.9282 2.73475 20.5415 3.34663 21.1534C3.95713
                    21.7652 4.57037 22.142 5.29363 22.4225C5.99487 22.6947 6.79238 22.8804 7.96388 22.934C9.13813
                    22.9862 9.51213 23 12.5 23C15.4879 23 15.8605 22.9862 17.0347 22.934C18.2049 22.879 19.0065 
                    22.6947 19.7064 22.4225C20.44 22.1462 21.1045 21.7131 21.6534 21.1534C22.2652 20.5415 22.6406 19.9282 22.9225
                    19.205C23.1934 18.5051 23.379 17.7062 23.434 16.5347C23.4862 15.3619 23.5 14.9879 23.5 12C23.5 9.01213 23.4862 8.63813
                    23.434 7.46388C23.379 6.29375 23.1934 5.4935 22.9225 4.795C22.646 4.06106 22.2129 3.39618 21.6534 2.84663C21.1042 2.28655
                    20.4392 1.85339 19.705 1.5775C19.0037 1.30525 18.2035 1.11963 17.0334 1.066C15.8591 1.01375 15.4865 1 12.4973 1H12.5014H12.5ZM11.5141 
                    2.98275H12.5014C15.4384 2.98275 15.7862 2.99238 16.9454 3.046C18.0179 3.09413 18.6009 3.27425 18.9886 3.42412C19.5015 3.6235 19.8686
                    3.86275 20.2536 4.24775C20.6386 4.63275 20.8765 4.9985 21.0759 5.51275C21.2271 5.89913 21.4059 6.48213 21.454 7.55463C21.5076 8.71375
                    21.5186 9.06163 21.5186 11.9973C21.5186 14.9329 21.5076 15.2821 21.454 16.4412C21.4059 17.5138 21.2258 18.0954 21.0759 18.4831C20.8995
                    18.9607 20.618 19.3926 20.2522 19.7467C19.8672 20.1318 19.5015 20.3696 18.9873 20.569C18.6023 20.7203 18.0192 20.899 16.9454 20.9485C15.7862
                    21.0007 15.4384 21.0131 12.5014 21.0131C9.56437 21.0131 9.21513 21.0007 8.056 20.9485C6.9835 20.899 6.40188 20.7203 6.01412 20.569C5.53631
                    20.3929 5.10405 20.1119 4.74913 19.7467C4.38303 19.392 4.10112 18.9598 3.92412 18.4818C3.77425 18.0954 3.59413 17.5124 3.546 16.4399C3.49375
                    15.2807 3.48275 14.9329 3.48275 11.9945C3.48275 9.0575 3.49375 8.711 3.546 7.55187C3.5955 6.47937 3.77425 5.89638 3.9255 5.50863C4.12488
                    4.99575 4.36413 4.62862 4.74913 4.24362C5.13412 3.85862 5.49987 3.62075 6.01412 3.42138C6.40188 3.27012 6.9835 3.09138 8.056 3.04188C9.07075 
                    2.99513 9.464 2.98137 11.5141 2.98V2.98275ZM18.3726 4.80875C18.1993 4.80875 18.0276 4.84289 17.8675 4.90923C17.7073 4.97557 17.5618 5.0728 
                    17.4392 5.19537C17.3167 5.31794 17.2194 5.46346 17.1531 5.62361C17.0868 5.78376 17.0526 5.9554 17.0526 6.12875C17.0526 6.30209 17.0868 6.47374 17.1531 6.63389C17.2194 6.79404 17.3167 6.93956 17.4392 7.06213C17.5618 7.1847 17.7073 7.28193 17.8675 7.34827C18.0276 7.41461 18.1993 7.44875 18.3726 7.44875C18.7227 7.44875 19.0585 7.30968 19.306 7.06213C19.5536 6.81458 19.6926 6.47884 19.6926 6.12875C19.6926 5.77866 19.5536 5.44292 19.306 5.19537C19.0585 4.94782 18.7227 4.80875 18.3726 4.80875ZM12.5014 6.3515C11.7521 6.33981 11.008 6.47729 10.3123 6.75594C9.61671 7.0346 8.98346 7.44885 8.44946 7.97458C7.91546 8.50032 7.49138 9.12703 7.20191 9.81823C6.91244 10.5094 6.76336 11.2513 6.76336 12.0007C6.76336 12.7501 6.91244 13.4919 7.20191 14.1831C7.49138 14.8743 7.91546 15.5011 8.44946 16.0268C8.98346 16.5525 9.61671 16.9668 10.3123 17.2454C11.008 17.5241 11.7521 17.6616 12.5014 17.6499C13.9844 17.6267 15.3988 17.0214 16.4393 15.9645C17.4799 14.9076 18.0631 13.4839 18.0631 12.0007C18.0631 10.5175 17.4799 9.09382 16.4393 8.03691C15.3988 6.97999 13.9844 6.37464 12.5014 6.3515ZM12.5014 8.33288C13.474 8.33288 14.4067 8.71923 15.0944 9.40695C15.7821 10.0947 16.1685 11.0274 16.1685 12C16.1685 12.9726 15.7821 13.9053 15.0944 14.593C14.4067 15.2808 13.474 15.6671 12.5014 15.6671C11.5288 15.6671 10.596 15.2808 9.90833 14.593C9.22061 13.9053 8.83425 12.9726 8.83425 12C8.83425 11.0274 9.22061 10.0947 9.90833 9.40695C10.596 8.71923 11.5288 8.33288 12.5014 8.33288Z" fill="#96BB7C"/>
      </g>
    </symbol>
    <symbol id="tw" viewBox="0 0 20 20">
    <g>

      <path d="M7.41075 18C15.713 18 20.2546 11.0731 20.2546 5.07669C20.2546 4.88285 20.2546 4.68625 20.2464 4.49241C21.1306 3.84789 21.8937 3.04993 22.5 2.13592C21.6741 2.50262 20.7988 2.7443 19.9026 2.85312C20.8466 2.28495 21.5536 1.391 21.8923 0.337403C21.0054 0.86647 20.0346 1.23787 19.0226 1.43534C18.3423 0.705724 17.4419 0.222372 16.4611 0.0601592C15.4803 -0.102054 14.4737 0.0659244 13.5973 0.538075C12.7209 1.01023 12.0236 1.7602 11.6134 2.67182C11.2031 3.58345 11.1029 4.60585 11.3281 5.58066C9.53339 5.49005 7.77762 5.02057 6.17468 4.20269C4.57175 3.3848 3.15744 2.23678 2.0235 0.833069C1.44784 1.83421 1.27216 3.01843 1.53214 4.14526C1.79211 5.27209 2.46825 6.25705 3.42325 6.90013C2.70762 6.87565 2.00772 6.68215 1.38 6.33524V6.39754C1.38123 7.44631 1.74205 8.46247 2.40145 9.27429C3.06086 10.0861 3.9784 10.6438 4.999 10.853C4.61161 10.9605 4.21144 11.014 3.80963 11.0122C3.52635 11.0131 3.24365 10.9867 2.96537 10.9333C3.25383 11.8361 3.8155 12.6254 4.57171 13.1908C5.32793 13.7561 6.24081 14.0691 7.1825 14.0859C5.58276 15.3511 3.60668 16.0373 1.5725 16.034C1.21407 16.0355 0.855882 16.0147 0.5 15.9716C2.56458 17.297 4.96228 18.0008 7.41075 18Z" fill="#96BB7C" />
    </g>
    </symbol>
    <symbol id="phone" viewBox="0 0 24 23" fill="none">
             <path d="M18.3478 12.3517C18.2365 12.2402 18.1043 12.1517 17.9587 12.0913C17.8131 12.031 17.657 11.9999 17.4995 11.9999C17.3419 11.9999 17.1858 12.031 17.0402 12.0913C16.8946 12.1517 16.7624 12.2402 16.6511 12.3517L14.7383 14.2645C13.8515 14.0005 12.1967 13.4005 11.1479 12.3517C10.0991 11.3029 9.49913 9.64814 9.23513 8.76135L11.1479 6.84857C11.2594 6.73723 11.3479 6.60498 11.4083 6.45941C11.4687 6.31383 11.4998 6.15778 11.4998 6.00018C11.4998 5.84258 11.4687 5.68653 11.4083 5.54095C11.3479 5.39538 11.2594 5.26313 11.1479 5.15179L6.34796 0.351838C6.23662 0.240304 6.10438 0.151819 5.9588 0.0914472C5.81322 0.031075 5.65717 0 5.49957 0C5.34197 0 5.18592 0.031075 5.04034 0.0914472C4.89477 0.151819 4.76252 0.240304 4.65118 0.351838L1.39681 3.60621C0.940817 4.0622 0.684019 4.68859 0.693619 5.32819C0.721219 7.03697 1.17361 12.9721 5.85117 17.6497C10.5287 22.3272 16.4639 22.7784 18.1738 22.8072H18.2074C18.841 22.8072 19.4398 22.5576 19.8934 22.104L23.1478 18.8497C23.2593 18.7383 23.3478 18.6061 23.4082 18.4605C23.4686 18.3149 23.4996 18.1589 23.4996 18.0013C23.4996 17.8437 23.4686 17.6876 23.4082 17.542C23.3478 17.3965 23.2593 17.2642 23.1478 17.1529L18.3478 12.3517ZM18.1954 20.406C16.6979 20.3808 11.5739 19.9788 7.54795 15.9517C3.50879 11.9125 3.11759 6.77057 3.0936 5.30299L5.49957 2.89701L8.60274 6.00018L7.05116 7.55177C6.91011 7.6927 6.80641 7.86657 6.74942 8.05764C6.69243 8.24872 6.68396 8.45098 6.72476 8.64615C6.75356 8.78415 7.45795 12.0565 9.44993 14.0485C11.4419 16.0405 14.7143 16.7449 14.8523 16.7737C15.0473 16.8156 15.2498 16.8078 15.441 16.751C15.6323 16.6942 15.8062 16.5901 15.9467 16.4485L17.4995 14.8969L20.6026 18.0001L18.1954 20.406Z" fill="#96BB7C"/>
    </symbol>
    <symbol id="location" viewBox="0 0 24 30" fill="none">
              <path d="M12 17.9998C15.3089 17.9998 17.9999 15.3089 17.9999 11.9999C17.9999 8.69092 15.3089 5.99995 12 5.99995C8.69101 5.99995 6.00004 8.69092 6.00004 11.9999C6.00004 15.3089 8.69101 17.9998 12 17.9998ZM12 8.99992C13.6545 8.99992 14.9999 10.3454 14.9999 11.9999C14.9999 13.6544 13.6545 14.9999 12 14.9999C10.3455 14.9999 9.00001 13.6544 9.00001 11.9999C9.00001 10.3454 10.3455 8.99992 12 8.99992ZM11.13 29.7207C11.3839 29.902 11.688 29.9994 12 29.9994C12.312 29.9994 12.6161 29.902 12.87 29.7207C13.326 29.3982 24.0434 21.6598 23.9999 11.9999C23.9999 5.38344 18.6164 0 12 0C5.38357 0 0.000132055 5.38344 0.000132055 11.9924C-0.0433675 21.6598 10.674 29.3982 11.13 29.7207ZM12 2.99997C16.9634 2.99997 20.9999 7.03642 20.9999 12.0074C21.0314 18.6643 14.418 24.6417 12 26.6022C9.58353 24.6402 2.9686 18.6613 3.0001 11.9999C3.0001 7.03642 7.03655 2.99997 12 2.99997ZM12 17.9998C15.3089 17.9998 17.9999 15.3089 17.9999 11.9999C17.9999 8.69092 15.3089 5.99995 12 5.99995C8.69101 5.99995 6.00004 8.69092 6.00004 11.9999C6.00004 15.3089 8.69101 17.9998 12 17.9998ZM12 8.99992C13.6545 8.99992 14.9999 10.3454 14.9999 11.9999C14.9999 13.6544 13.6545 14.9999 12 14.9999C10.3455 14.9999 9.00001 13.6544 9.00001 11.9999C9.00001 10.3454 10.3455 8.99992 12 8.99992ZM11.13 29.7207C11.3839 29.902 11.688 29.9994 12 29.9994C12.312 29.9994 12.6161 29.902 12.87 29.7207C13.326 29.3982 24.0434 21.6598 23.9999 11.9999C23.9999 5.38344 18.6164 0 12 0C5.38357 0 0.000132055 5.38344 0.000132055 11.9924C-0.0433675 21.6598 10.674 29.3982 11.13 29.7207ZM12 2.99997C16.9634 2.99997 20.9999 7.03642 20.9999 12.0074C21.0314 18.6643 14.418 24.6417 12 26.6022C9.58353 24.6402 2.9686 18.6613 3.0001 11.9999C3.0001 7.03642 7.03655 2.99997 12 2.99997Z" fill="#96BB7C"/>
              <path d="M12 17.9998C15.3089 17.9998 17.9999 15.3089 17.9999 11.9999C17.9999 8.69092 15.3089 5.99995 12 5.99995C8.69101 5.99995 6.00004 8.69092 6.00004 11.9999C6.00004 15.3089 8.69101 17.9998 12 17.9998ZM12 8.99992C13.6545 8.99992 14.9999 10.3454 14.9999 11.9999C14.9999 13.6544 13.6545 14.9999 12 14.9999C10.3455 14.9999 9.00001 13.6544 9.00001 11.9999C9.00001 10.3454 10.3455 8.99992 12 8.99992ZM11.13 29.7207C11.3839 29.902 11.688 29.9994 12 29.9994C12.312 29.9994 12.6161 29.902 12.87 29.7207C13.326 29.3982 24.0434 21.6598 23.9999 11.9999C23.9999 5.38344 18.6164 0 12 0C5.38357 0 0.000132055 5.38344 0.000132055 11.9924C-0.0433675 21.6598 10.674 29.3982 11.13 29.7207ZM12 2.99997C16.9634 2.99997 20.9999 7.03642 20.9999 12.0074C21.0314 18.6643 14.418 24.6417 12 26.6022C9.58353 24.6402 2.9686 18.6613 3.0001 11.9999C3.0001 7.03642 7.03655 2.99997 12 2.99997ZM12 17.9998C15.3089 17.9998 17.9999 15.3089 17.9999 11.9999C17.9999 8.69092 15.3089 5.99995 12 5.99995C8.69101 5.99995 6.00004 8.69092 6.00004 11.9999C6.00004 15.3089 8.69101 17.9998 12 17.9998ZM12 8.99992C13.6545 8.99992 14.9999 10.3454 14.9999 11.9999C14.9999 13.6544 13.6545 14.9999 12 14.9999C10.3455 14.9999 9.00001 13.6544 9.00001 11.9999C9.00001 10.3454 10.3455 8.99992 12 8.99992ZM11.13 29.7207C11.3839 29.902 11.688 29.9994 12 29.9994C12.312 29.9994 12.6161 29.902 12.87 29.7207C13.326 29.3982 24.0434 21.6598 23.9999 11.9999C23.9999 5.38344 18.6164 0 12 0C5.38357 0 0.000132055 5.38344 0.000132055 11.9924C-0.0433675 21.6598 10.674 29.3982 11.13 29.7207ZM12 2.99997C16.9634 2.99997 20.9999 7.03642 20.9999 12.0074C21.0314 18.6643 14.418 24.6417 12 26.6022C9.58353 24.6402 2.9686 18.6613 3.0001 11.9999C3.0001 7.03642 7.03655 2.99997 12 2.99997Z" fill="#96BB7C"/>
    </symbol>
    <symbol id="email" viewBox="0 0 24 21" fill="none">
            <path fill-rule="evenodd" clip-rule="evenodd" d="M-0.91875 2.71667C-0.75492 1.9804 -0.352185 1.32302 0.223498 0.852181C0.79918 0.38134 1.51369 0.124949 2.25 0.125H21.75C22.4863 0.124949 23.2008 0.38134 23.7765 0.852181C24.3522 1.32302 24.7549 1.9804 24.9187 2.71667L12 10.815L-0.91875 2.71667ZM-1 4.62V16.46L8.42988 10.53L-1 4.62ZM9.98663 11.5083L-0.689625 18.22C-0.425844 
            18.7905 -0.00951922 19.2724 0.510895 19.6096C1.03131 19.9469 1.63441 20.1256 2.25 20.125H21.75C22.3655 20.1251 22.9684 19.946 23.4885 19.6085C24.0086 19.2709 24.4246 18.7889 24.688 18.2183L14.0118 11.5067L12 12.7683L9.98663 11.5067V11.5083ZM15.5701 10.5317L25 16.46V4.62L15.5701 10.53V10.5317Z" fill="#96BB7C"/>
    </symbol>
</svg>
